# xmcd
#
# Track frame offsets: 
#        150
#        13547
#        36865
#        59367
#        76972
#        91062
#        111252
#        132025
#        148100
#        164955
#
# Disc length: 2832 seconds
#
# Revision: 4
# Processed by: cddbd v1.5.1PL0 Copyright (c) Steve Scherf et al.
# Submitted via: ExactAudioCopy v0.95a5
#
DISCID=830b0e0a
DTITLE=Francisco Céspedes - Dónde está la vida?
DYEAR=2000
DGENRE=Trova
TTITLE0=Dónde está la vida?
TTITLE1=Así es mi música
TTITLE2=Qué lejos!
TTITLE3=Todo igual a nada
TTITLE4=Llorando por dentro
TTITLE5=Otra lágrima
TTITLE6=Que tú te vas
TTITLE7=Cuándo?
TTITLE8=Quédate más
TTITLE9=Olvidarte
EXTD=YEAR: 2000
EXTT0=
EXTT1=
EXTT2=
EXTT3=
EXTT4=
EXTT5=
EXTT6=
EXTT7=
EXTT8=
EXTT9=
PLAYORDER=
